<svg xmlns="http://www.w3.org/2000/svg" viewBox="0 0 245 78">
<defs><clipPath id="clip0"><rect x="611" y="183" width="245" height="78"/></clipPath></defs><g clip-path="url(#clip0)" transform="translate(-611 -183)"><path d="M29.0924 67.7001C28.5193 71.1797 26.7439 73.8097 23.8011 75.5933 18.6646 78.7094 10.5255 78.6394 5.72992 74.677 2.85049 72.2989 1.26486 69.2038 0.688269 65.5877 0.181994 62.4158 0.357784 59.2648 1.51448 56.2326 3.50794 51.0078 7.27688 47.9057 12.853 47.0769 16.0066 46.6082 19.0794 46.9335 22.0116 48.2764 25.6223 49.9341 27.6826 52.7879 28.5405 56.5859 28.6565 57.093 28.4666 57.1734 28.013 57.1699 26.3466 57.1489 24.6766 57.1489 23.0101 57.1699 22.6233 57.1769 22.4264 57.051 22.3069 56.6978 20.3205 50.9133 12.0584 50.8434 8.6832 55.2219 5.46273 59.4011 5.43109 65.5457 8.68672 69.5326 10.4903 71.7429 12.9373 72.6067 15.7394 72.5193 17.3637 72.4702 18.9142 72.0996 20.2924 71.1763 21.4139 70.4244 22.2401 69.4277 22.7605 68.1932 22.88 67.9063 22.9609 67.6861 23.3476 67.6896 25.2461 67.7105 27.1482 67.7001 29.0924 67.7001Z" fill="#F0F0F0" transform="matrix(1.00099 0 0 1 611 183)"/><path d="M201.472 57.799C201.472 54.3997 201.507 51.1473 201.447 47.8984 201.434 47.038 201.666 46.8178 202.502 46.8702 203.785 46.9471 205.075 46.9122 206.363 46.8807 206.869 46.8667 207.066 46.9646 207.062 47.5346 207.041 57.2499 207.044 66.9653 207.062 76.6806 207.062 77.2157 206.929 77.38 206.384 77.3626 205.273 77.3206 204.162 77.3311 203.051 77.3591 202.65 77.3695 202.481 77.2542 202.435 76.8485 202.38 76.3309 202.224 75.8273 202.147 75.3097 202.069 74.7955 201.855 74.6417 201.504 75.0789 198.508 78.7684 192.278 78.5237 188.752 75.4985 186.597 73.6485 185.504 71.2005 185.197 68.4272 184.832 65.1047 185.257 61.9293 187.387 59.184 189.621 56.3057 192.658 55.253 196.195 55.5468 198.512 55.7322 199.791 56.3511 201.472 57.799ZM201.472 66.6401C201.496 65.9091 201.419 65.1887 201.251 64.4753 200.664 61.9783 199.074 60.5198 196.434 60.2856 194.349 60.0968 192.391 60.9605 191.343 63.2372 190.292 65.5174 190.298 67.885 191.42 70.1372 192.929 73.1624 196.789 73.9982 199.381 71.8789 201.015 70.5394 201.461 68.6579 201.472 66.6401Z" fill="#F0F0F0" transform="matrix(1.00099 0 0 1 611 183)"/><path d="M114.481 62.3174C114.481 57.5752 114.495 52.8295 114.466 48.0872 114.463 47.4542 114.586 47.2618 115.268 47.2653 121.502 47.2969 127.735 47.2934 133.969 47.2689 134.615 47.2653 134.908 47.3668 134.866 48.1082 134.795 49.3252 134.806 50.5528 134.862 51.7733 134.89 52.4168 134.658 52.5217 134.074 52.5182 129.715 52.4937 125.355 52.5182 120.992 52.4902 120.367 52.4867 120.138 52.5916 120.151 53.2841 120.204 55.4349 120.194 57.5892 120.155 59.7435 120.144 60.366 120.341 60.5198 120.947 60.5129 124.663 60.4849 128.379 60.5163 132.095 60.4849 132.756 60.4779 132.949 60.6458 132.914 61.3032 132.855 62.4363 132.855 63.573 132.914 64.706 132.949 65.3671 132.675 65.444 132.109 65.4405 128.421 65.416 124.733 65.451 121.048 65.409 120.303 65.402 120.142 65.6048 120.148 66.3218 120.19 69.756 120.155 73.1904 120.176 76.6246 120.18 77.1632 120.081 77.3835 119.473 77.3661 118.042 77.3171 116.605 77.3171 115.174 77.3661 114.576 77.387 114.463 77.1806 114.466 76.6351 114.488 71.8614 114.481 67.0877 114.481 62.3174Z" fill="#F0F0F0" transform="matrix(1.00099 0 0 1 611 183)"/><path d="M58.5829 55.4698C65.1856 55.4803 69.9741 60.1526 69.9812 66.5805 69.9881 73.0679 65.2172 77.7717 58.5934 77.8102 52.0013 77.8487 47.1566 73.0644 47.1741 66.5281 47.1882 60.0582 51.938 55.4593 58.5829 55.4698ZM58.5654 72.9945C62.0354 72.9945 64.4473 70.3681 64.4508 66.5875 64.4543 62.8979 62.0284 60.2681 58.5899 60.2261 55.2288 60.1841 52.6904 62.9084 52.6799 66.563 52.6658 70.3016 55.1339 72.998 58.5654 72.9945Z" fill="#F0F0F0" transform="matrix(1.00099 0 0 1 611 183)"/><path d="M161.227 66.6366C161.227 63.2896 161.241 59.9428 161.213 56.5995 161.209 56.033 161.346 55.8371 161.937 55.858 163.164 55.9 164.398 55.914 165.622 55.851 166.215 55.8231 166.381 56.0889 166.455 56.568 166.528 57.0541 166.606 57.5437 166.698 58.0264 166.729 58.1872 166.747 58.3866 166.975 58.4146 167.158 58.4355 167.221 58.2781 167.306 58.1697 170.114 54.5745 175.898 54.9383 178.694 56.9947 180.571 58.3761 181.471 60.31 181.766 62.5483 182.1 65.0697 181.875 67.6053 181.914 70.1337 181.949 72.316 181.903 74.4983 181.935 76.6805 181.942 77.2122 181.812 77.38 181.263 77.3661 179.861 77.3276 178.454 77.3276 177.051 77.3661 176.478 77.3835 176.324 77.2157 176.33 76.6421 176.359 72.8616 176.355 69.0776 176.341 65.2936 176.334 63.4925 175.849 61.8768 174.189 60.8941 170.972 58.9881 166.968 61.1599 166.859 64.9474 166.747 68.7558 166.795 72.5713 166.835 76.3798 166.841 77.1771 166.638 77.4115 165.836 77.3695 164.524 77.2996 163.203 77.3206 161.888 77.3661 161.326 77.3835 161.22 77.1982 161.223 76.677 161.238 73.3267 161.227 69.9799 161.227 66.6366Z" fill="#F0F0F0" transform="matrix(1.00099 0 0 1 611 183)"/><path d="M157.001 66.6191C157.001 69.9379 156.976 73.2568 157.022 76.5722 157.032 77.2612 156.821 77.387 156.195 77.3626 154.969 77.3136 153.738 77.3311 152.508 77.3591 152.082 77.3695 151.879 77.2716 151.839 76.8135 151.797 76.3239 151.66 75.8448 151.558 75.3622 151.52 75.1803 151.604 74.932 151.316 74.8691 151.094 74.8236 151.01 75.0054 150.904 75.1348 148.159 78.5971 142.487 78.4188 139.506 76.226 137.552 74.7921 136.623 72.7322 136.454 70.3821 136.176 66.4617 136.381 62.5273 136.352 58.5999 136.346 57.7117 135.948 56.5226 136.542 56.0155 137.056 55.5783 138.216 55.886 139.091 55.8755 139.735 55.8685 140.385 55.9316 141.021 55.858 141.795 55.7706 141.914 56.0819 141.911 56.7779 141.876 60.5304 141.869 64.2864 141.907 68.0424 141.925 69.7246 142.386 71.2809 143.914 72.2601 147.03 74.25 150.999 72.3475 151.376 68.6684 151.608 66.3777 151.438 64.0731 151.463 61.7754 151.484 60.0583 151.495 58.3411 151.453 56.624 151.438 55.9945 151.646 55.8406 152.247 55.858 153.594 55.9001 154.94 55.9001 156.287 55.858 156.863 55.8406 157.022 56.0015 157.015 56.582 156.984 59.9253 157.001 63.2723 157.001 66.6191Z" fill="#F0F0F0" transform="matrix(1.00099 0 0 1 611 183)"/><path d="M94.9789 70.494C95.2425 70.494 95.5061 70.515 95.7697 70.4905 96.8419 70.3926 97.7663 70.3681 98.0263 71.809 98.1599 72.5433 98.895 73.0155 99.6338 73.3022 100.875 73.7849 102.154 73.8408 103.406 73.4456 105.188 72.8826 105.53 71.0745 104.113 69.847 103.244 69.0951 102.137 68.8818 101.071 68.588 99.6688 68.2033 98.245 67.892 96.8697 67.4059 94.441 66.5491 93.0379 64.8879 92.9428 62.3034 92.8514 59.7155 93.9873 57.6871 96.3246 56.5575 99.7495 54.9068 103.244 55.0327 106.598 56.7953 108.426 57.757 109.429 59.4182 109.769 61.4606 109.85 61.9362 109.724 62.0692 109.246 62.0622 107.871 62.0377 106.492 62.0517 105.118 62.0552 104.784 62.0552 104.584 62.0377 104.432 61.6075 103.754 59.6876 100.695 58.8587 99.0501 60.0967 97.8192 61.0234 97.9635 62.6742 99.3666 63.3597 100.818 64.0696 102.421 64.2969 103.961 64.727 105.888 65.2656 107.751 65.9196 109.048 67.5773 111.405 70.5779 110.283 75.3201 106.767 76.7925 103.135 78.3138 99.4545 78.2054 95.9212 76.4638 93.7201 75.3796 92.6228 73.4351 92.3063 71.0325 92.2498 70.6094 92.3206 70.459 92.7743 70.4835 93.5121 70.5185 94.2473 70.494 94.9789 70.494Z" fill="#F0F0F0" transform="matrix(1.00099 0 0 1 611 183)"/><path d="M74.6958 70.494C74.8997 70.494 75.1072 70.5115 75.3111 70.4905 76.4467 70.3751 77.4558 70.3506 77.7054 71.8754 77.8003 72.456 78.3945 72.8687 78.9605 73.1449 80.3387 73.8199 81.7872 73.8864 83.2146 73.3967 84.7897 72.8547 85.1166 71.134 83.9178 69.9764 83.0389 69.1266 81.8681 68.8993 80.7536 68.595 79.2945 68.1928 77.8214 67.8571 76.3869 67.3605 72.1644 65.8986 71.841 60.9606 73.9118 58.2887 74.8892 57.0262 76.176 56.2672 77.6632 55.8791 80.3985 55.1691 83.1092 55.288 85.7073 56.5016 87.8203 57.4878 89.0157 59.1735 89.4376 61.4467 89.5255 61.9188 89.4482 62.0727 88.956 62.0657 87.5496 62.0447 86.1468 62.0482 84.7405 62.0657 84.3573 62.0692 84.2166 61.9398 84.0795 61.5656 83.3834 59.6526 80.1419 58.8657 78.6054 60.2052 77.505 61.1669 77.6843 62.6986 79.0062 63.3562 80.4512 64.0766 82.058 64.3039 83.5979 64.7306 84.7792 65.0593 85.9323 65.444 86.9941 66.077 89.2934 67.4514 90.0954 69.5602 89.8668 72.0888 89.652 74.4389 88.3406 76.1071 86.1398 76.9359 82.6838 78.2369 79.1996 78.1704 75.842 76.6072 73.4794 75.509 72.379 73.4352 71.9957 70.9416 71.943 70.5885 72.0625 70.4835 72.407 70.494 73.1735 70.508 73.9329 70.494 74.6958 70.494Z" fill="#F0F0F0" transform="matrix(1.00099 0 0 1 611 183)"/><path d="M32.0738 66.6436C32.0738 63.2966 32.0844 59.9498 32.0633 56.5995 32.0597 56.0539 32.1652 55.8266 32.7769 55.8545 34.004 55.9035 35.2345 55.8895 36.465 55.858 36.9467 55.8476 37.1436 56.005 37.1998 56.4771 37.2807 57.1695 37.4214 57.8515 37.5409 58.5369 37.5655 58.6698 37.5057 58.8482 37.685 58.9077 37.8995 58.9811 37.9979 58.8168 38.0964 58.6698 38.1456 58.5964 38.1983 58.5299 38.244 58.453 39.9633 55.6692 42.6845 55.3335 45.6026 55.4558 45.9436 55.4698 45.9577 55.6622 45.9577 55.914 45.9542 57.4284 45.9401 58.9426 45.9648 60.4534 45.9718 60.9011 45.7397 60.8941 45.4163 60.8801 44.249 60.8346 43.0712 60.6878 41.9216 60.957 39.4745 61.5306 38.0296 63.2267 37.7202 65.8182 37.4283 68.2557 37.6358 70.7039 37.5831 73.1449 37.5584 74.3374 37.5549 75.5335 37.5901 76.7261 37.6042 77.2262 37.4459 77.3626 36.9537 77.3521 35.551 77.3206 34.1446 77.3136 32.7383 77.3556 32.1898 77.373 32.0562 77.2157 32.0633 76.6806 32.0879 73.3372 32.0738 69.9904 32.0738 66.6436Z" fill="#F0F0F0" transform="matrix(1.00099 0 0 1 611 183)"/><path d="M219.6 36.0364C217.569 33.8347 216.108 31.3282 215.551 28.3466 214.594 23.2353 215.75 18.645 219.326 14.8934 224.072 9.91649 228.996 5.10996 233.83 0.218205 234.145-0.0996123 234.311-0.0504654 234.594 0.237863 236.079 1.75487 237.56 3.27187 239.086 4.74299 239.551 5.19187 239.471 5.41794 239.057 5.82751 234.445 10.4408 229.846 15.0704 225.251 19.7033 222.822 22.1508 222.194 25.3453 223.516 28.4154 223.864 29.2247 224.355 29.9357 225.006 30.5288 226.724 32.4127 228.547 34.1951 230.38 35.9611 233.781 39.3948 237.179 42.8285 240.58 46.2622 241.879 47.5728 243.171 48.8966 244.492 50.1809 244.86 50.5381 244.838 50.7347 244.482 51.0819 242.989 52.5465 241.508 54.0209 240.062 55.5347 239.649 55.9672 239.441 55.9836 239.008 55.5412 234.566 51.0361 230.1 46.5539 225.638 42.0684 225.429 41.8587 225.205 41.6621 224.987 41.459 223.255 39.5947 221.462 37.7828 219.6 36.0364Z" fill="#EA3568" transform="matrix(1.00099 0 0 1 611 183)"/><path d="M219.515 36.712C221.339 38.425 223.102 40.199 224.806 42.0308 221.894 45.2221 221.974 49.5542 225.036 52.6522 229.554 57.2222 234.089 61.7729 238.635 66.3172 239.028 66.7093 239.175 67.095 239.172 67.6446 239.146 70.8454 239.159 74.0464 239.159 77.4144 238.744 77.0384 238.428 76.7749 238.138 76.4856 232.007 70.3248 225.905 64.1286 219.742 58.0032 213.643 51.9389 213.883 42.3425 219.515 36.712Z" fill="#F0F0F0" transform="matrix(1.00099 0 0 1 611 183)"/><path d="M230.079 35.9139C228.278 34.2071 226.49 32.4908 224.807 30.6734 229.169 26.3779 233.532 22.0793 237.897 17.7839 238.255 17.4331 238.625 17.098 238.989 16.7598 239.271 16.9273 239.143 17.158 239.143 17.3414 239.152 20.363 239.15 23.3815 239.152 26.4032 239.152 26.7509 239.134 27.048 238.846 27.3262 235.914 30.1771 232.999 33.0471 230.079 35.9139Z" fill="#F0F0F0" transform="matrix(1.00099 0 0 1 611 183)"/></g></svg>