<svg xmlns="http://www.w3.org/2000/svg" viewBox="0 0 2440 2560"><g id="Layer_2" data-name="Layer 2" fill="currentColor"><g id="Layer_1-2" data-name="Layer 1"><path d="M1191.73,548.28A40,40,0,0,0,1220,560h240a40,40,0,0,0,28.28-11.72l65.15-65.15A139.18,139.18,0,0,0,1620,500c77.2,0,140-62.8,140-140s-62.8-140-140-140-140,62.8-140,140a139.18,139.18,0,0,0,16.87,66.57L1443.45,480H1236.57L1100,343.43V80H1216.1a40.6,40.6,0,0,0,11.7.77C1583.88,67.44,1950.57,228.68,2127.88,560H1994.12c-17.26-57.75-70.81-100-134.11-100-77.19,0-140,62.8-140,140,0,63.29,42.25,116.84,100,134.1V1100H1520a40,40,0,0,0-40,40v220h-80V1120a40,40,0,0,0-14-30.37l-126-108V720h163.44l53.43,53.43A139.18,139.18,0,0,0,1460,840c0,77.2,62.8,140,140,140s140-62.8,140-140-62.8-140-140-140a139.18,139.18,0,0,0-66.57,16.87l-65.15-65.15A40,40,0,0,0,1440,640H1220a40,40,0,0,0-40,40v320a40,40,0,0,0,14,30.37l126,108V1360H1160a40,40,0,0,0-28.28,11.72l-320,320A40,40,0,0,0,800,1720v325.9c-57.76,17.26-100,70.81-100,134.1,0,77.2,62.81,140,140,140s140-62.8,140-140c0-63.29-42.25-116.84-100-134.1V1736.57L1176.57,1440H1900a40,40,0,0,0,35.78-22.11l120-240A40.11,40.11,0,0,0,2060,1160V1020h176.14v164.72l-51.8,113.34a40,40,0,0,0-1,30.69l176.27,469a6,6,0,0,1-.67,5.8c-1.31,1.9-2.65,1.9-3.16,1.9h-171.8a40,40,0,0,0-37.91,52.77l47.5,141-93,32.31a40,40,0,0,0-19.41,61.06l59.18,82.75-51.47,40.74a40,40,0,0,0-15.17,31.37v102.83c0,46.36-24.24,89.48-63.34,112.58a121.58,121.58,0,0,1-62,17.14C1781,2480,1140,2269.66,1140,1920v-83.33a40,40,0,0,0-80,0V1920c0,426.69,718.67,640,888.28,640a201.49,201.49,0,0,0,102.82-28.31c63.26-37.38,102.56-106.89,102.56-181.41v-83.47l66.17-52.38a40,40,0,0,0,7.71-54.64l-50.23-70.24,79.9-27.76a40,40,0,0,0,24.79-50.56l-42.38-125.78h116.11a84,84,0,0,0,69-36.46,86.26,86.26,0,0,0,9.65-79.5L2264,1316.17l48.5-106.13a40.07,40.07,0,0,0,3.61-16.62l0-212.47c0-.32.1-.62.1-1s-.09-.63-.1-1v-7.28c-12.54-302.28-135.94-556.67-356.88-735.69C1760.44,75,1501.73-8.4,1228,.81a40,40,0,0,0-8-.81H1060a40,40,0,0,0-40,40V360a40,40,0,0,0,11.72,28.28ZM1620,300a60,60,0,1,1-60,60A60,60,0,0,1,1620,300Zm-20,480a60,60,0,1,1-60,60A60,60,0,0,1,1600,780ZM900,2180a60,60,0,1,1-60-60A60,60,0,0,1,900,2180ZM1800,600a60,60,0,1,1,60,60A60,60,0,0,1,1800,600Zm433.91,340H2020a40,40,0,0,0-40,40v170.56L1875.29,1360H1560V1180h300a40,40,0,0,0,40-40V734.1a140.49,140.49,0,0,0,94.11-94.1H2165.5C2202.18,729.4,2226,829.42,2233.92,940Z"/><path d="M120,274.1V620a40,40,0,0,0,15,31.19L355,827.86a41.06,41.06,0,0,0,5,3.38V1260a40.06,40.06,0,0,0,9.63,26L480,1414.79V1745.9c-57.75,17.26-100,70.81-100,134.1,0,77.2,62.81,140,140,140s140-62.8,140-140c0-63.29-42.24-116.84-100-134.1V1400a40,40,0,0,0-9.63-26L440,1245.21V368.93L640,483.21V565.9C582.25,583.16,540,636.71,540,700c0,77.2,62.81,140,140,140s140-62.8,140-140c0-63.29-42.25-116.84-100-134.1V460a40,40,0,0,0-20.15-34.73l-280-160A40,40,0,0,0,360,300V729.31L200,600.82V274.1c57.76-17.26,100-70.81,100-134.1C300,62.8,237.2,0,160,0S20,62.8,20,140C20,203.29,62.25,256.84,120,274.1ZM580,1880a60,60,0,1,1-60-60A60,60,0,0,1,580,1880ZM740,700a60,60,0,1,1-60-60A60,60,0,0,1,740,700ZM160,80a60,60,0,1,1-60,60A60,60,0,0,1,160,80Z"/><path d="M1020,636.57v586.86l-300,300V1234.1c57.76-17.26,100-70.81,100-134.1,0-77.2-62.81-140-140-140s-140,62.8-140,140c0,63.29,42.25,116.84,100,134.1V1620a40,40,0,0,0,68.29,28.28l380-380A40,40,0,0,0,1100,1240V620a40,40,0,0,0-11.72-28.28L940,443.43V140a40,40,0,0,0-80,0V460a40,40,0,0,0,11.71,28.28ZM680,1160a60,60,0,1,1,60-60A60,60,0,0,1,680,1160Z"/><path d="M0,1600c0,77.2,62.8,140,140,140s140-62.8,140-140c0-63.29-42.24-116.84-100-134.1V1194.1c57.76-17.26,100-70.81,100-134.1,0-77.2-62.8-140-140-140S0,982.8,0,1060c0,63.29,42.25,116.84,100,134.1v271.8C42.25,1483.16,0,1536.71,0,1600Zm80-540a60,60,0,1,1,60,60A60,60,0,0,1,80,1060Zm60,480a60,60,0,1,1-60,60A60,60,0,0,1,140,1540Z"/></g></g></svg>